<?xml version="1.0" standalone="no"?>
<!DOCTYPE svg PUBLIC "-//W3C//DTD SVG 20010904//EN"
 "http://www.w3.org/TR/2001/REC-SVG-20010904/DTD/svg10.dtd">
<svg version="1.0" xmlns="http://www.w3.org/2000/svg"
 width="512.000000pt" height="512.000000pt" viewBox="0 0 512.000000 512.000000"
 preserveAspectRatio="xMidYMid meet">

<g transform="translate(0.000000,512.000000) scale(0.100000,-0.100000)"
fill="#000000" stroke="none">
<path d="M3171 5109 c-144 -24 -340 -110 -459 -201 -198 -153 -350 -435 -313
-582 13 -53 65 -145 115 -203 43 -49 126 -93 175 -93 48 0 85 24 205 134 270
246 610 472 831 551 28 10 54 22 59 26 17 15 -60 154 -122 221 -123 130 -289
180 -491 147z"/>
<path d="M3740 5073 c0 -10 18 -45 41 -78 200 -296 296 -738 255 -1176 -32
-336 -97 -618 -243 -1048 -73 -216 -76 -246 -28 -326 54 -92 259 -140 390 -91
76 29 149 85 210 162 276 346 423 857 401 1389 -16 388 -55 494 -249 683 -226
222 -463 393 -651 471 -86 36 -126 40 -126 14z"/>
<path d="M1955 3639 c-20 -18 -43 -46 -52 -63 -9 -17 -70 -173 -135 -346 -66
-173 -126 -325 -134 -337 -20 -32 -47 -44 -253 -107 l-183 -57 -111 62 c-118
66 -164 77 -208 48 -25 -17 -478 -821 -512 -908 -33 -86 -8 -197 62 -267 16
-17 245 -160 508 -319 263 -158 492 -299 508 -313 32 -26 125 -145 125 -159 0
-5 -73 -17 -162 -26 -397 -42 -704 -141 -777 -251 -22 -34 -27 -53 -30 -128
-4 -117 3 -147 43 -195 102 -119 425 -208 921 -254 180 -17 731 -18 870 -1
245 30 493 86 645 148 178 72 347 178 369 233 29 69 -2 117 -126 197 -246 158
-657 263 -1106 281 l-158 6 -84 166 c-46 91 -100 185 -119 208 -20 23 -196
171 -391 330 -243 197 -355 294 -355 307 0 10 11 34 25 51 l24 33 47 -24 47
-24 541 -1 541 0 155 -200 c85 -110 170 -213 188 -230 42 -37 75 -37 113 0 31
31 36 59 17 94 -21 41 -790 1017 -808 1027 -44 24 -103 1 -121 -46 -14 -38 6
-74 135 -238 64 -82 115 -149 114 -150 -2 0 -172 1 -378 4 -307 4 -380 8 -404
20 -24 12 -43 48 -116 212 -48 108 -97 210 -109 227 l-23 31 53 -23 53 -23 68
-154 c38 -85 70 -156 72 -158 11 -10 46 71 46 105 l0 40 199 92 c204 95 249
126 284 196 35 71 270 722 275 760 10 92 -36 155 -114 155 -34 0 -51 -7 -79
-31z"/>
<path d="M1108 3537 c-90 -38 -151 -97 -190 -184 -34 -73 -32 -198 4 -275 101
-218 386 -268 555 -99 54 53 78 99 94 178 31 148 -51 306 -191 372 -80 37
-194 41 -272 8z"/>
</g>
</svg>
