<?xml version="1.0"?><svg id="Layer_1" style="enable-background:new 0 0 512 512;" version="1.1" viewBox="0 0 512 512" xml:space="preserve" xmlns="http://www.w3.org/2000/svg" xmlns:xlink="http://www.w3.org/1999/xlink"><style type="text/css">
	.st0{fill:#F0915A;}
	.st1{fill:#555A6E;}
	.st2{fill:#463C4B;}
	.st3{fill:#289BC3;}
	.st4{fill:#00D2D2;}
	.st5{fill:#FAB991;}
	.st6{fill:#E64178;}
	.st7{fill:#FF6E91;}
	.st8{fill:#FF8CAF;}
	.st9{fill:#D7E6F0;}
	.st10{fill:#FAA51E;}
	.st11{fill:#A5C3DC;}
	.st12{fill:#FFFFFF;}
	.st13{fill:#1EF0F0;}
	.st14{fill:#353744;}
	.st15{fill:#FA9B37;}
	.st16{fill:#FFD241;}
	.st17{fill:#FBBE18;}
	.st18{fill:#F68820;}
	.st19{fill:#FBD301;}
	.st20{fill:#78B441;}
	.st21{fill:#A5CD3C;}
	.st22{fill:#9B5FAA;}
	.st23{fill:#6EA5D7;}
	.st24{fill:#F5732D;}
	.st25{fill:#4B55A5;}
	.st26{fill:#648C3C;}
	.st27{fill:#643773;}
</style><g><g><path class="st2" d="M456,368H24V160c0-17.673,14.327-32,32-32h368c17.673,0,32,14.327,32,32V368z"/><path class="st1" d="M424,368H24V160c0-17.673,14.327-32,32-32h336c17.673,0,32,14.327,32,32V368z"/><path class="st11" d="M56,408h368c17.673,0,32-14.327,32-32v-8H24v8C24,393.673,38.327,408,56,408z"/><path class="st9" d="M392,408H56c-17.673,0-32-14.327-32-32v-8h400v8C424,393.673,409.673,408,392,408z"/><rect class="st11" height="32" width="72" x="192" y="408"/><rect class="st9" height="16" width="48" x="192" y="424"/><path class="st9" d="M304,464H144v-8c0-8.837,7.163-16,16-16h128c8.837,0,16,7.163,16,16V464z"/><path class="st11" d="M304,464h-48v-8c0-8.837,7.163-16,16-16h16c8.837,0,16,7.163,16,16V464z"/></g><path class="st9" d="M112,300c-3.071,0-6.143-1.172-8.485-3.515l-40-40c-4.687-4.687-4.687-12.284,0-16.971l40-40   c4.686-4.686,12.285-4.686,16.971,0c4.687,4.687,4.687,12.284,0,16.971L88.971,248l31.515,31.515   c4.687,4.687,4.687,12.284,0,16.971C118.143,298.828,115.071,300,112,300z"/><path class="st9" d="M224,300c-3.071,0-6.143-1.172-8.485-3.515c-4.687-4.687-4.687-12.284,0-16.971L247.029,248l-31.515-31.515   c-4.687-4.687-4.687-12.284,0-16.971c4.686-4.686,12.285-4.686,16.971,0l40,40c4.687,4.687,4.687,12.284,0,16.971l-40,40   C230.143,298.828,227.071,300,224,300z"/><path class="st9" d="M151.996,300.003c-1.483,0-2.991-0.276-4.453-0.861c-6.153-2.461-9.146-9.445-6.685-15.599l32-80   c2.462-6.152,9.443-9.147,15.599-6.685c6.153,2.461,9.146,9.445,6.685,15.599l-32,80   C161.265,297.148,156.759,300.003,151.996,300.003z"/><g><path class="st3" d="M397.579,112L397.579,112c-4.326,0-8.193-2.676-9.733-6.718c-0.45-1.18-0.933-2.343-1.45-3.489    c-1.785-3.959-0.958-8.604,2.113-11.675l0.004-0.004c4.07-4.07,4.07-10.668,0-14.738l-7.889-7.889    c-2.035-2.035-4.702-3.052-7.369-3.052l0,0h-27.335C344.7,62.714,344,60.629,344,58.422C344,52.666,339.334,48,333.579,48h-43.157    C284.666,48,280,52.666,280,58.422c0,2.207-0.7,4.293-1.919,6.013h-27.335l0,0c-2.667,0-5.334,1.017-7.369,3.052l-7.889,7.889    c-4.07,4.07-4.07,10.668,0,14.738l0.004,0.004c3.071,3.071,3.898,7.716,2.113,11.675c-0.517,1.145-1,2.309-1.45,3.489    c-1.541,4.042-5.407,6.718-9.733,6.718h0c-5.755,0-10.421,4.666-10.421,10.422v11.157c0,5.756,4.666,10.422,10.421,10.422h0    c4.325,0,8.192,2.676,9.733,6.718c0.45,1.18,0.933,2.343,1.45,3.489c1.785,3.959,0.958,8.604-2.113,11.675l-0.004,0.004    c-4.07,4.07-4.07,10.668,0,14.738l7.889,7.889c2.035,2.035,4.702,3.052,7.369,3.052l0,0h27.335    c1.219,1.72,1.919,3.806,1.919,6.013v0c0,5.756,4.666,10.422,10.421,10.422h43.157c5.755,0,10.421-4.666,10.421-10.422v0    c0-2.207,0.7-4.293,1.919-6.013h27.335l0,0c2.667,0,5.334-1.017,7.369-3.052l7.889-7.889c4.07-4.07,4.07-10.668,0-14.738    l-0.004-0.004c-3.071-3.071-3.898-7.716-2.113-11.675c0.517-1.145,1-2.309,1.45-3.489c1.541-4.042,5.407-6.718,9.733-6.718h0    c5.755,0,10.421-4.666,10.421-10.422v-11.157C408,116.666,403.334,112,397.579,112z M304.077,129.948    c-0.62-7.867,2.556-15.014,7.891-19.807c4.468,4.002,7.46,9.627,7.955,15.911c0.62,7.867-2.556,15.014-7.891,19.807    C307.564,141.857,304.573,136.232,304.077,129.948z"/><g><path class="st4" d="M376,133.578v-11.157c0-5.756-4.666-10.422-10.422-10.422h0c-4.326,0-8.193-2.676-9.733-6.718     c-0.45-1.18-0.933-2.343-1.45-3.489c-1.785-3.959-0.958-8.604,2.113-11.675l0.004-0.004c4.07-4.07,4.07-10.668,0-14.738     l-7.889-7.889c-4.07-4.07-10.668-4.07-14.738,0l-0.004,0.004c-3.071,3.071-7.715,3.898-11.674,2.113     c-1.145-0.516-2.309-1-3.489-1.45c-4.042-1.54-6.718-5.407-6.718-9.733v0C312,52.666,307.334,48,301.578,48h-11.157     C284.666,48,280,52.666,280,58.422v0c0,4.326-2.676,8.193-6.718,9.733c-1.18,0.45-2.343,0.933-3.489,1.45     c-3.959,1.785-8.604,0.958-11.674-2.113l-0.004-0.004c-4.07-4.07-10.668-4.07-14.738,0l-7.889,7.889     c-4.07,4.07-4.07,10.668,0,14.738l0.004,0.004c3.071,3.071,3.898,7.716,2.113,11.675c-0.516,1.145-1,2.309-1.45,3.489     c-1.54,4.042-5.407,6.718-9.733,6.718h0c-5.756,0-10.422,4.666-10.422,10.422v11.157c0,5.756,4.666,10.422,10.422,10.422h0     c4.326,0,8.193,2.676,9.733,6.718c0.45,1.18,0.934,2.343,1.45,3.489c1.785,3.959,0.958,8.604-2.113,11.675l-0.004,0.004     c-4.07,4.07-4.07,10.668,0,14.738l7.889,7.889c4.07,4.07,10.668,4.07,14.738,0l0.004-0.004c3.071-3.071,7.715-3.898,11.674-2.113     c1.145,0.516,2.309,1,3.489,1.45c4.042,1.54,6.718,5.407,6.718,9.733v0c0,5.756,4.666,10.422,10.422,10.422h11.157     c5.756,0,10.422-4.666,10.422-10.422v0c0-4.326,2.676-8.193,6.718-9.733c1.18-0.45,2.343-0.933,3.489-1.45     c3.959-1.785,8.604-0.958,11.674,2.113l0.004,0.004c4.07,4.07,10.668,4.07,14.738,0l7.889-7.889c4.07-4.07,4.07-10.668,0-14.738     l-0.004-0.004c-3.071-3.071-3.898-7.716-2.113-11.675c0.516-1.145,1-2.309,1.45-3.489c1.54-4.042,5.407-6.718,9.733-6.718h0     C371.334,144,376,139.334,376,133.578z M319.923,126.052c1.166,14.788-11.082,27.037-25.87,25.871     c-11.633-0.917-21.058-10.342-21.976-21.975c-1.166-14.788,11.082-27.037,25.87-25.871     C309.581,104.994,319.006,114.419,319.923,126.052z"/></g></g><g><path class="st6" d="M477.579,248L477.579,248c-4.326,0-8.193-2.676-9.733-6.718c-0.45-1.18-0.933-2.343-1.45-3.489    c-1.785-3.959-0.958-8.604,2.113-11.675l0.004-0.004c4.07-4.07,4.07-10.668,0-14.738l-7.889-7.889    c-2.035-2.035-4.702-3.052-7.369-3.052l0,0h-27.335c-1.219-1.72-1.919-3.806-1.919-6.013c0-5.756-4.666-10.422-10.421-10.422    h-43.157c-5.755,0-10.421,4.666-10.421,10.422c0,2.207-0.7,4.293-1.919,6.013h-27.335l0,0c-2.667,0-5.334,1.017-7.369,3.052    l-7.889,7.889c-4.07,4.07-4.07,10.668,0,14.738l0.004,0.004c3.071,3.071,3.898,7.716,2.113,11.675    c-0.517,1.145-1,2.309-1.45,3.489c-1.541,4.042-5.407,6.718-9.733,6.718h0c-5.755,0-10.421,4.666-10.421,10.422v11.157    c0,5.756,4.666,10.422,10.421,10.422h0c4.325,0,8.192,2.676,9.733,6.718c0.45,1.18,0.933,2.343,1.45,3.489    c1.785,3.959,0.958,8.604-2.113,11.675l-0.004,0.004c-4.07,4.07-4.07,10.668,0,14.738l7.889,7.889    c2.035,2.035,4.702,3.052,7.369,3.052l0,0h27.335c1.219,1.72,1.919,3.806,1.919,6.013v0c0,5.756,4.666,10.422,10.421,10.422    h43.157c5.755,0,10.421-4.666,10.421-10.422v0c0-2.207,0.7-4.293,1.919-6.013h27.335l0,0c2.667,0,5.334-1.017,7.369-3.052    l7.889-7.889c4.07-4.07,4.07-10.668,0-14.738l-0.004-0.004c-3.071-3.071-3.898-7.716-2.113-11.675c0.517-1.145,1-2.309,1.45-3.489    c1.541-4.042,5.407-6.718,9.733-6.718h0c5.755,0,10.421-4.666,10.421-10.422v-11.157C488,252.666,483.334,248,477.579,248z     M384.077,265.948c-0.62-7.867,2.556-15.014,7.891-19.807c4.468,4.002,7.46,9.627,7.955,15.911    c0.62,7.867-2.556,15.014-7.891,19.807C387.564,277.857,384.573,272.232,384.077,265.948z"/><g><path class="st7" d="M456,269.578v-11.157c0-5.756-4.666-10.422-10.422-10.422h0c-4.326,0-8.193-2.676-9.733-6.718     c-0.45-1.18-0.933-2.343-1.45-3.489c-1.785-3.959-0.958-8.604,2.113-11.675l0.004-0.004c4.07-4.07,4.07-10.668,0-14.738     l-7.889-7.889c-4.07-4.07-10.668-4.07-14.738,0l-0.004,0.004c-3.071,3.071-7.715,3.898-11.674,2.113     c-1.145-0.516-2.309-1-3.489-1.45c-4.042-1.54-6.718-5.407-6.718-9.733v0c0-5.756-4.666-10.422-10.422-10.422h-11.157     c-5.756,0-10.422,4.666-10.422,10.422v0c0,4.326-2.676,8.193-6.718,9.733c-1.18,0.45-2.343,0.933-3.489,1.45     c-3.959,1.785-8.604,0.958-11.674-2.113l-0.004-0.004c-4.07-4.07-10.668-4.07-14.738,0l-7.889,7.889     c-4.07,4.07-4.07,10.668,0,14.738l0.004,0.004c3.071,3.071,3.898,7.716,2.113,11.675c-0.516,1.145-1,2.309-1.45,3.489     c-1.54,4.042-5.407,6.718-9.733,6.718h0c-5.756,0-10.422,4.666-10.422,10.422v11.157c0,5.756,4.666,10.422,10.422,10.422h0     c4.326,0,8.193,2.676,9.733,6.718c0.45,1.18,0.933,2.343,1.45,3.489c1.785,3.959,0.958,8.604-2.113,11.675l-0.004,0.004     c-4.07,4.07-4.07,10.668,0,14.738l7.889,7.889c4.07,4.07,10.668,4.07,14.738,0l0.004-0.004c3.071-3.071,7.715-3.898,11.674-2.113     c1.145,0.516,2.309,1,3.489,1.45c4.042,1.54,6.718,5.407,6.718,9.733v0c0,5.756,4.666,10.422,10.422,10.422h11.157     c5.756,0,10.422-4.666,10.422-10.422v0c0-4.326,2.676-8.193,6.718-9.733c1.18-0.45,2.343-0.933,3.489-1.45     c3.959-1.785,8.604-0.957,11.674,2.113l0.004,0.004c4.07,4.07,10.668,4.07,14.738,0l7.889-7.889c4.07-4.07,4.07-10.668,0-14.738     l-0.004-0.004c-3.071-3.071-3.898-7.716-2.113-11.675c0.516-1.145,1-2.309,1.45-3.489c1.54-4.042,5.407-6.718,9.733-6.718h0     C451.334,280,456,275.334,456,269.578z M399.923,262.052c1.166,14.788-11.082,27.037-25.87,25.871     c-11.633-0.917-21.058-10.342-21.976-21.975c-1.166-14.788,11.082-27.037,25.87-25.871     C389.581,240.994,399.006,250.419,399.923,262.052z"/></g></g></g></svg>