<?xml version="1.0" standalone="no"?>
<!DOCTYPE svg PUBLIC "-//W3C//DTD SVG 20010904//EN"
 "http://www.w3.org/TR/2001/REC-SVG-20010904/DTD/svg10.dtd">
<svg version="1.0" xmlns="http://www.w3.org/2000/svg"
 width="512.000000pt" height="512.000000pt" viewBox="0 0 512.000000 512.000000"
 preserveAspectRatio="xMidYMid meet">

<g transform="translate(0.000000,512.000000) scale(0.100000,-0.100000)"
fill="#000000" stroke="none">
<path d="M4025 5106 c-41 -18 -82 -68 -94 -113 -40 -145 144 -263 259 -166 86
72 81 198 -12 266 -34 25 -113 32 -153 13z"/>
<path d="M1134 4510 c-102 -21 -195 -96 -237 -189 -26 -58 -34 -188 -17 -274
13 -70 63 -183 109 -250 188 -274 514 -406 733 -296 l36 19 69 -72 c37 -40 99
-106 138 -148 38 -41 92 -98 119 -127 l49 -51 -17 -41 c-20 -50 -20 -91 -3
-134 16 -37 280 -330 358 -397 131 -112 178 -132 252 -110 57 16 128 72 250
195 l104 104 21 -52 c64 -160 77 -263 75 -608 -1 -290 -2 -298 -28 -380 -14
-46 -42 -147 -61 -224 -85 -346 -126 -416 -420 -715 -94 -96 -179 -190 -189
-209 -41 -80 3 -189 96 -235 110 -54 153 -31 371 199 323 340 368 414 464 758
80 286 74 272 111 275 38 4 38 5 53 -152 15 -163 13 -449 -5 -568 -29 -193
-87 -372 -168 -518 -33 -60 -41 -85 -41 -125 0 -86 54 -152 145 -176 107 -29
169 17 252 186 147 297 207 610 194 1012 -6 170 -39 492 -67 642 -6 30 -10
149 -10 263 0 415 -53 692 -181 949 l-38 76 46 44 c189 184 314 530 338 939 6
97 5 108 -17 150 -40 77 -124 113 -211 89 -101 -27 -131 -79 -141 -242 -13
-216 -69 -444 -141 -573 -19 -33 -57 -81 -84 -107 -44 -41 -54 -46 -78 -40
-16 5 -66 8 -113 8 -73 -1 -94 -5 -145 -30 -73 -35 -145 -105 -180 -176 -45
-89 -128 -210 -190 -277 -69 -74 -47 -85 -212 103 -63 72 -131 140 -151 153
-37 23 -46 23 -163 10 -22 -3 -48 20 -174 157 -81 88 -164 177 -183 197 -33
35 -35 39 -19 56 25 27 45 83 57 155 46 288 -214 651 -530 740 -72 20 -174 28
-226 17z m207 -56 c281 -84 508 -365 509 -630 0 -204 -112 -319 -310 -317
-242 3 -505 214 -601 483 -19 51 -24 86 -24 165 0 90 3 106 28 157 32 65 91
121 151 142 56 20 180 20 247 0z"/>
<path d="M2790 4345 c-277 -86 -404 -398 -264 -650 92 -164 293 -253 479 -212
349 76 471 509 211 755 -59 56 -105 82 -185 106 -66 19 -180 20 -241 1z"/>
</g>
</svg>
