<?xml version="1.0" standalone="no"?>
<!DOCTYPE svg PUBLIC "-//W3C//DTD SVG 20010904//EN"
 "http://www.w3.org/TR/2001/REC-SVG-20010904/DTD/svg10.dtd">
<svg version="1.0" xmlns="http://www.w3.org/2000/svg"
 width="512.000000pt" height="512.000000pt" viewBox="0 0 512.000000 512.000000"
 preserveAspectRatio="xMidYMid meet">

<g transform="translate(0.000000,512.000000) scale(0.100000,-0.100000)"
fill="#000000" stroke="none">
<path d="M1991 5110 c-324 -68 -454 -466 -233 -712 229 -255 653 -150 738 184
53 207 -63 431 -264 508 -62 24 -178 33 -241 20z"/>
<path d="M3683 4173 c-33 -17 -63 -65 -63 -103 0 -26 15 -57 43 -88 19 -21 20
-24 4 -39 -15 -15 -19 -14 -54 26 -47 53 -99 64 -151 32 -59 -38 -67 -94 -21
-165 16 -27 29 -50 27 -51 -2 -2 -147 -116 -322 -253 l-319 -250 -46 33 c-101
72 -201 105 -315 105 -143 0 -256 -70 -327 -203 -18 -34 -53 -83 -77 -109
l-44 -47 54 -38 c29 -21 82 -60 117 -86 63 -48 64 -48 96 -33 71 34 170 13
220 -46 88 -105 24 -270 -114 -293 -36 -6 -40 -10 -50 -52 -35 -136 -149 -257
-275 -293 -25 -7 -46 -14 -46 -17 0 -2 12 -22 27 -45 51 -76 28 -151 -53 -178
-61 -20 -88 2 -230 182 l-128 164 -209 148 c-115 81 -212 145 -215 141 -3 -3
-8 -43 -10 -89 -16 -307 196 -650 493 -797 379 -187 731 -30 801 356 8 50 22
109 30 131 34 96 115 161 239 194 97 26 152 56 200 112 76 88 100 167 93 306
-4 70 -13 116 -31 167 -14 38 -25 70 -24 71 1 1 146 115 321 252 l320 251 41
-45 c38 -40 46 -44 89 -44 100 0 140 99 77 188 -26 35 -28 42 -15 53 13 10 21
6 52 -25 64 -67 116 -74 168 -22 45 45 46 94 5 157 -29 42 -29 44 -10 57 30
21 49 66 49 116 0 36 -6 52 -31 81 -49 56 -121 65 -187 24 -20 -12 -25 -10
-64 29 -50 48 -89 59 -135 35z"/>
<path d="M1370 4090 c-166 -53 -291 -186 -335 -357 -12 -45 -15 -124 -15 -362
0 -354 1 -360 93 -428 140 -105 707 -501 746 -520 167 -85 352 100 272 272
-10 22 -34 54 -52 71 -19 17 -170 127 -337 244 l-302 212 2 211 c3 187 5 211
21 221 12 8 22 8 35 0 14 -9 17 -29 20 -127 l3 -116 127 -90 c99 -69 138 -91
173 -96 61 -9 102 12 130 68 64 126 169 230 284 282 88 39 149 48 276 43 111
-5 119 -4 132 15 20 31 66 16 74 -24 4 -23 16 -35 54 -54 l48 -25 140 111 c78
61 141 116 141 122 0 25 -62 132 -106 184 -58 68 -119 110 -203 139 l-66 24
-650 -1 c-595 -1 -655 -2 -705 -19z"/>
<path d="M3444 3158 c-211 -167 -210 -165 -202 -173 6 -6 236 107 477 233
l114 60 -61 1 c-33 0 -78 7 -99 14 l-39 13 -190 -148z"/>
<path d="M2687 2013 c-25 -132 -89 -255 -187 -357 l-77 -81 63 -115 63 -115
26 -560 c15 -308 31 -576 36 -596 17 -67 65 -126 131 -159 69 -34 120 -38 189
-15 107 37 169 128 169 250 0 146 -50 1152 -60 1200 -7 32 -68 155 -171 343
-89 160 -162 292 -163 292 -1 0 -10 -39 -19 -87z"/>
<path d="M1522 888 c3 -697 3 -703 24 -743 31 -57 71 -94 133 -123 121 -56
263 1 320 128 20 44 21 63 21 671 l0 626 -73 6 c-132 11 -274 54 -372 112 -24
14 -46 25 -50 25 -3 0 -4 -316 -3 -702z"/>
</g>
</svg>
