<?xml version="1.0" standalone="no"?>
<!DOCTYPE svg PUBLIC "-//W3C//DTD SVG 20010904//EN"
 "http://www.w3.org/TR/2001/REC-SVG-20010904/DTD/svg10.dtd">
<svg version="1.0" xmlns="http://www.w3.org/2000/svg"
 width="512.000000pt" height="512.000000pt" viewBox="0 0 512.000000 512.000000"
 preserveAspectRatio="xMidYMid meet">

<g transform="translate(0.000000,512.000000) scale(0.100000,-0.100000)"
fill="#000000" stroke="none">
<path d="M2068 4801 c-163 -52 -274 -186 -301 -362 -30 -193 75 -384 260 -472
64 -30 74 -32 184 -32 113 0 116 1 192 38 230 114 320 375 208 606 -74 154
-222 242 -404 240 -51 0 -104 -7 -139 -18z"/>
<path d="M1000 4690 c-120 -23 -200 -122 -200 -246 0 -113 51 -650 66 -696 27
-84 83 -132 359 -308 156 -99 269 -178 289 -202 59 -69 60 -80 47 -571 -8
-300 -9 -453 -2 -476 17 -57 263 -609 336 -756 65 -130 73 -142 119 -170 44
-26 58 -30 125 -30 84 0 115 12 169 66 61 60 66 79 70 247 3 103 -2 195 -13
282 -15 123 -56 314 -68 327 -4 3 -39 12 -79 18 -67 12 -76 11 -110 -6 -21
-10 -49 -19 -63 -19 -33 0 -75 41 -75 73 0 58 86 116 171 117 49 0 291 -35
349 -50 53 -14 124 -67 237 -174 55 -53 120 -105 144 -116 94 -42 218 -14 288
65 45 51 61 93 61 158 0 222 -272 511 -608 648 -47 19 -88 42 -94 53 -6 11
-13 99 -15 195 -4 146 -2 179 10 196 13 17 32 20 153 26 165 8 339 36 553 89
355 88 413 116 468 223 65 129 12 300 -115 375 -40 23 -58 27 -122 27 -67 -1
-92 -7 -240 -64 -250 -96 -374 -129 -610 -162 -131 -19 -462 -16 -605 5 -238
36 -334 72 -435 164 -125 112 -200 249 -269 488 -11 38 -34 89 -51 112 -49 69
-155 109 -240 92z"/>
<path d="M3799 3026 c-77 -21 -140 -65 -354 -245 -113 -96 -205 -176 -205
-177 0 -2 18 -31 40 -66 88 -142 121 -301 86 -424 -72 -252 -374 -371 -605
-237 -24 14 -77 57 -118 96 l-74 71 -31 -32 -31 -31 12 -83 c7 -46 15 -171 18
-278 5 -166 3 -205 -11 -255 -34 -117 -109 -204 -225 -259 -60 -28 -75 -31
-161 -31 -86 0 -101 3 -162 32 -84 39 -157 107 -195 178 -15 30 -30 55 -33 55
-9 0 -299 -246 -357 -303 -100 -97 -149 -239 -124 -360 31 -144 136 -277 268
-340 63 -30 75 -32 173 -32 90 0 113 4 160 25 70 32 59 22 765 634 1311 1136
1575 1368 1599 1399 102 133 114 330 29 474 -32 55 -119 134 -177 161 -89 42
-196 53 -287 28z"/>
</g>
</svg>
